  0
SECTION
  2
HEADER
  9
$ACADVER
  1
AC1014
  9
$HANDSEED
  5
FFFF
  9
$MEASUREMENT
 70
     1
  0
ENDSEC
  0
SECTION
  2
TABLES
  0
TABLE
  2
VPORT
  5
8
330
0
100
AcDbSymbolTable
 70
     4
  0
VPORT
  5
2E
330
8
100
AcDbSymbolTableRecord
100
AcDbViewportTableRecord
  2
*ACTIVE
 70
     0
 10
0.0
 20
0.0
 11
1.0
 21
1.0
 12
210.0
 22
148.5
 13
0.0
 23
0.0
 14
10.0
 24
10.0
 15
10.0
 25
10.0
 16
0.0
 26
0.0
 36
1.0
 17
0.0
 27
0.0
 37
0.0
 40
341.0
 41
1.24
 42
50.0
 43
0.0
 44
0.0
 50
0.0
 51
0.0
 71
     0
 72
   100
 73
     1
 74
     3
 75
     0
 76
     0
 77
     0
 78
     0
  0
ENDTAB
  0
TABLE
  2
LTYPE
  5
5
330
0
100
AcDbSymbolTable
 70
     1
  0
LTYPE
  5
14
330
5
100
AcDbSymbolTableRecord
100
AcDbLinetypeTableRecord
  2
BYBLOCK
 70
     0
  3

 72
    65
 73
     0
 40
0.0
  0
LTYPE
  5
15
330
5
100
AcDbSymbolTableRecord
100
AcDbLinetypeTableRecord
  2
BYLAYER
 70
     0
  3

 72
    65
 73
     0
 40
0.0
  0
LTYPE
  5
16
330
5
100
AcDbSymbolTableRecord
100
AcDbLinetypeTableRecord
  2
CONTINUOUS
 70
     0
  3
Solid line
 72
    65
 73
     0
 40
0.0
  0
ENDTAB
  0
TABLE
  2
LAYER
  5
2
100
AcDbSymbolTable
 70
2
  0
LAYER
  5
50
100
AcDbSymbolTableRecord
100
AcDbLayerTableRecord
  2
0
 70
0
  6
CONTINUOUS
  0
LAYER
  5
51
100
AcDbSymbolTableRecord
100
AcDbLayerTableRecord
  2
Layer_1
 70
0
  6
CONTINUOUS
  0
ENDTAB
  0
TABLE
  2
STYLE
  5
3
330
0
100
AcDbSymbolTable
 70
     1
  0
STYLE
  5
11
330
3
100
AcDbSymbolTableRecord
100
AcDbTextStyleTableRecord
  2
STANDARD
 70
     0
 40
0.0
 41
1.0
 50
0.0
 71
     0
 42
2.5
  3
txt
  4

  0
ENDTAB
  0
TABLE
  2
VIEW
  5
6
330
0
100
AcDbSymbolTable
 70
     0
  0
ENDTAB
  0
TABLE
  2
UCS
  5
7
330
0
100
AcDbSymbolTable
 70
     0
  0
ENDTAB
  0
TABLE
  2
APPID
  5
9
330
0
100
AcDbSymbolTable
 70
     2
  0
APPID
  5
12
330
9
100
AcDbSymbolTableRecord
100
AcDbRegAppTableRecord
  2
ACAD
 70
     0
  0
ENDTAB
  0
TABLE
  2
DIMSTYLE
  5
A
330
0
100
AcDbSymbolTable
 70
     1
  0
DIMSTYLE
105
27
330
A
100
AcDbSymbolTableRecord
100
AcDbDimStyleTableRecord
  2
ISO-25
 70
     0
  3

  4

  5

  6

  7

 40
1.0
 41
2.5
 42
0.625
 43
3.75
 44
1.25
 45
0.0
 46
0.0
 47
0.0
 48
0.0
140
2.5
141
2.5
142
0.0
143
0.03937007874016
144
1.0
145
0.0
146
1.0
147
0.625
 71
     0
 72
     0
 73
     0
 74
     0
 75
     0
 76
     0
 77
     1
 78
     8
170
     0
171
     3
172
     1
173
     0
174
     0
175
     0
176
     0
177
     0
178
     0
270
     2
271
     2
272
     2
273
     2
274
     3
340
11
275
     0
280
     0
281
     0
282
     0
283
     0
284
     8
285
     0
286
     0
287
     3
288
     0
  0
ENDTAB
  0
TABLE
  2
BLOCK_RECORD
  5
1
330
0
100
AcDbSymbolTable
 70
     1
  0
BLOCK_RECORD
  5
1F
330
1
100
AcDbSymbolTableRecord
100
AcDbBlockTableRecord
  2
*MODEL_SPACE
  0
BLOCK_RECORD
  5
1B
330
1
100
AcDbSymbolTableRecord
100
AcDbBlockTableRecord
  2
*PAPER_SPACE
  0
ENDTAB
  0
ENDSEC
  0
SECTION
  2
BLOCKS
  0
BLOCK
  5
20
330
1F
100
AcDbEntity
  8
0
100
AcDbBlockBegin
  2
*MODEL_SPACE
 70
     0
 10
0.0
 20
0.0
 30
0.0
  3
*MODEL_SPACE
  1

  0
ENDBLK
  5
21
330
1F
100
AcDbEntity
  8
0
100
AcDbBlockEnd
  0
BLOCK
  5
1C
330
1B
100
AcDbEntity
 67
     1
  8
0
100
AcDbBlockBegin
  2
*PAPER_SPACE
  1

  0
ENDBLK
  5
1D
330
1B
100
AcDbEntity
 67
     1
  8
0
100
AcDbBlockEnd
  0
ENDSEC
  0
SECTION
  2
ENTITIES
  0
LWPOLYLINE
  5
100
100
AcDbEntity
  8
Layer_1
 62
7
100
AcDbPolyline
 90
4
 70
1
 10
0.000000
 20
18000.000000
 30
0.0
 10
6551.999717
 20
18000.000000
 30
0.0
 10
6551.999717
 20
1368.000283
 30
0.0
 10
0.000000
 20
1368.000283
 30
0.0
  0
LWPOLYLINE
  5
101
100
AcDbEntity
  8
Layer_1
 62
7
100
AcDbPolyline
 90
4
 70
1
 10
2.779979
 20
9481.886929
 30
0.0
 10
6546.758782
 20
9481.886929
 30
0.0
 10
6546.758782
 20
9234.002560
 30
0.0
 10
2.779979
 20
9234.002560
 30
0.0
  0
LWPOLYLINE
  5
102
100
AcDbEntity
  8
Layer_1
 62
7
100
AcDbPolyline
 90
4
 70
1
 10
22.420087
 20
9253.204724
 30
0.0
 10
246.829982
 20
9253.204724
 30
0.0
 10
246.829982
 20
1388.514898
 30
0.0
 10
22.420087
 20
1388.514898
 30
0.0
  0
LWPOLYLINE
  5
103
100
AcDbEntity
  8
Layer_1
 62
7
100
AcDbPolyline
 90
4
 70
1
 10
6281.545039
 20
9247.970551
 30
0.0
 10
6505.954934
 20
9247.970551
 30
0.0
 10
6505.954934
 20
1383.280724
 30
0.0
 10
6281.545039
 20
1383.280724
 30
0.0
  0
LWPOLYLINE
  5
104
100
AcDbEntity
  8
Layer_1
 62
7
100
AcDbPolyline
 90
4
 70
1
 10
262.500015
 20
1696.874457
 30
0.0
 10
6290.625180
 20
1696.874457
 30
0.0
 10
6290.625180
 20
1408.874428
 30
0.0
 10
262.500015
 20
1408.874428
 30
0.0
  0
SPLINE
  5
105
100
AcDbEntity
  8
Layer_1
 62
7
100
AcDbSpline
 70
8
 71
3
 72
8
 73
4
 74
0
 40
0
 40
0
 40
0
 40
0
 40
1
 40
1
 40
1
 40
1
 10
6210.427105
 20
5137.529386
 30
0.0
 10
6224.649939
 20
5137.529386
 30
0.0
 10
6238.290244
 20
5131.879387
 30
0.0
 10
6248.347307
 20
5121.822324
 30
0.0
  0
SPLINE
  5
106
100
AcDbEntity
  8
Layer_1
 62
7
100
AcDbSpline
 70
8
 71
3
 72
8
 73
4
 74
0
 40
0
 40
0
 40
0
 40
0
 40
1
 40
1
 40
1
 40
1
 10
6248.347307
 20
5121.822324
 30
0.0
 10
6258.404369
 20
5111.765261
 30
0.0
 10
6264.054369
 20
5098.124957
 30
0.0
 10
6264.054369
 20
5083.902122
 30
0.0
  0
LWPOLYLINE
  5
107
100
AcDbEntity
  8
Layer_1
 62
7
100
AcDbPolyline
 90
2
 70
0
 10
3743.572839
 20
5137.529386
 30
0.0
 10
6210.427105
 20
5137.529386
 30
0.0
  0
SPLINE
  5
108
100
AcDbEntity
  8
Layer_1
 62
7
100
AcDbSpline
 70
8
 71
3
 72
8
 73
4
 74
0
 40
0
 40
0
 40
0
 40
0
 40
1
 40
1
 40
1
 40
1
 10
6264.054369
 20
1753.047799
 30
0.0
 10
6264.054369
 20
1738.824965
 30
0.0
 10
6258.404369
 20
1725.184660
 30
0.0
 10
6248.347307
 20
1715.127597
 30
0.0
  0
SPLINE
  5
109
100
AcDbEntity
  8
Layer_1
 62
7
100
AcDbSpline
 70
8
 71
3
 72
8
 73
4
 74
0
 40
0
 40
0
 40
0
 40
0
 40
1
 40
1
 40
1
 40
1
 10
6248.347307
 20
1715.127597
 30
0.0
 10
6238.290244
 20
1705.070535
 30
0.0
 10
6224.649939
 20
1699.420535
 30
0.0
 10
6210.427105
 20
1699.420535
 30
0.0
  0
LWPOLYLINE
  5
10a
100
AcDbEntity
  8
Layer_1
 62
7
100
AcDbPolyline
 90
2
 70
0
 10
6264.054369
 20
5083.902122
 30
0.0
 10
6264.054369
 20
1753.047799
 30
0.0
  0
SPLINE
  5
10b
100
AcDbEntity
  8
Layer_1
 62
7
100
AcDbSpline
 70
8
 71
3
 72
8
 73
4
 74
0
 40
0
 40
0
 40
0
 40
0
 40
1
 40
1
 40
1
 40
1
 10
3743.572839
 20
1699.420535
 30
0.0
 10
3729.350004
 20
1699.420535
 30
0.0
 10
3715.709700
 20
1705.070535
 30
0.0
 10
3705.652637
 20
1715.127597
 30
0.0
  0
SPLINE
  5
10c
100
AcDbEntity
  8
Layer_1
 62
7
100
AcDbSpline
 70
8
 71
3
 72
8
 73
4
 74
0
 40
0
 40
0
 40
0
 40
0
 40
1
 40
1
 40
1
 40
1
 10
3705.652637
 20
1715.127597
 30
0.0
 10
3695.595574
 20
1725.184660
 30
0.0
 10
3689.945575
 20
1738.824965
 30
0.0
 10
3689.945575
 20
1753.047799
 30
0.0
  0
LWPOLYLINE
  5
10d
100
AcDbEntity
  8
Layer_1
 62
7
100
AcDbPolyline
 90
2
 70
0
 10
6210.427105
 20
1699.420535
 30
0.0
 10
3743.572839
 20
1699.420535
 30
0.0
  0
SPLINE
  5
10e
100
AcDbEntity
  8
Layer_1
 62
7
100
AcDbSpline
 70
8
 71
3
 72
8
 73
4
 74
0
 40
0
 40
0
 40
0
 40
0
 40
1
 40
1
 40
1
 40
1
 10
3689.945575
 20
5083.902122
 30
0.0
 10
3689.945575
 20
5098.124957
 30
0.0
 10
3695.595574
 20
5111.765261
 30
0.0
 10
3705.652637
 20
5121.822324
 30
0.0
  0
SPLINE
  5
10f
100
AcDbEntity
  8
Layer_1
 62
7
100
AcDbSpline
 70
8
 71
3
 72
8
 73
4
 74
0
 40
0
 40
0
 40
0
 40
0
 40
1
 40
1
 40
1
 40
1
 10
3705.652637
 20
5121.822324
 30
0.0
 10
3715.709700
 20
5131.879387
 30
0.0
 10
3729.350004
 20
5137.529386
 30
0.0
 10
3743.572839
 20
5137.529386
 30
0.0
  0
LWPOLYLINE
  5
110
100
AcDbEntity
  8
Layer_1
 62
7
100
AcDbPolyline
 90
2
 70
0
 10
3689.945575
 20
1753.047799
 30
0.0
 10
3689.945575
 20
5083.902122
 30
0.0
  0
LWPOLYLINE
  5
111
100
AcDbEntity
  8
Layer_1
 62
7
100
AcDbPolyline
 90
1
 70
1
 10
3743.572839
 20
5137.529386
 30
0.0
  0
SPLINE
  5
112
100
AcDbEntity
  8
Layer_1
 62
7
100
AcDbSpline
 70
8
 71
3
 72
8
 73
4
 74
0
 40
0
 40
0
 40
0
 40
0
 40
1
 40
1
 40
1
 40
1
 10
2267.759313
 20
2764.596189
 30
0.0
 10
2281.985526
 20
2764.596189
 30
0.0
 10
2295.629069
 20
2758.944848
 30
0.0
 10
2305.688521
 20
2748.885397
 30
0.0
  0
SPLINE
  5
113
100
AcDbEntity
  8
Layer_1
 62
7
100
AcDbSpline
 70
8
 71
3
 72
8
 73
4
 74
0
 40
0
 40
0
 40
0
 40
0
 40
1
 40
1
 40
1
 40
1
 10
2305.688521
 20
2748.885397
 30
0.0
 10
2315.747972
 20
2738.825945
 30
0.0
 10
2321.399313
 20
2725.182401
 30
0.0
 10
2321.399313
 20
2710.956189
 30
0.0
  0
LWPOLYLINE
  5
114
100
AcDbEntity
  8
Layer_1
 62
7
100
AcDbPolyline
 90
2
 70
0
 10
323.039256
 20
2764.596189
 30
0.0
 10
2267.759313
 20
2764.596189
 30
0.0
  0
SPLINE
  5
115
100
AcDbEntity
  8
Layer_1
 62
7
100
AcDbSpline
 70
8
 71
3
 72
8
 73
4
 74
0
 40
0
 40
0
 40
0
 40
0
 40
1
 40
1
 40
1
 40
1
 10
2321.399313
 20
1738.236189
 30
0.0
 10
2321.399313
 20
1724.009976
 30
0.0
 10
2315.747972
 20
1710.366433
 30
0.0
 10
2305.688521
 20
1700.306981
 30
0.0
  0
SPLINE
  5
116
100
AcDbEntity
  8
Layer_1
 62
7
100
AcDbSpline
 70
8
 71
3
 72
8
 73
4
 74
0
 40
0
 40
0
 40
0
 40
0
 40
1
 40
1
 40
1
 40
1
 10
2305.688521
 20
1700.306981
 30
0.0
 10
2295.629069
 20
1690.247530
 30
0.0
 10
2281.985526
 20
1684.596189
 30
0.0
 10
2267.759313
 20
1684.596189
 30
0.0
  0
LWPOLYLINE
  5
117
100
AcDbEntity
  8
Layer_1
 62
7
100
AcDbPolyline
 90
2
 70
0
 10
2321.399313
 20
2710.956189
 30
0.0
 10
2321.399313
 20
1738.236189
 30
0.0
  0
SPLINE
  5
118
100
AcDbEntity
  8
Layer_1
 62
7
100
AcDbSpline
 70
8
 71
3
 72
8
 73
4
 74
0
 40
0
 40
0
 40
0
 40
0
 40
1
 40
1
 40
1
 40
1
 10
323.039256
 20
1684.596189
 30
0.0
 10
308.813044
 20
1684.596189
 30
0.0
 10
295.169500
 20
1690.247530
 30
0.0
 10
285.110049
 20
1700.306981
 30
0.0
  0
SPLINE
  5
119
100
AcDbEntity
  8
Layer_1
 62
7
100
AcDbSpline
 70
8
 71
3
 72
8
 73
4
 74
0
 40
0
 40
0
 40
0
 40
0
 40
1
 40
1
 40
1
 40
1
 10
285.110049
 20
1700.306981
 30
0.0
 10
275.050597
 20
1710.366433
 30
0.0
 10
269.399256
 20
1724.009976
 30
0.0
 10
269.399256
 20
1738.236189
 30
0.0
  0
LWPOLYLINE
  5
11a
100
AcDbEntity
  8
Layer_1
 62
7
100
AcDbPolyline
 90
2
 70
0
 10
2267.759313
 20
1684.596189
 30
0.0
 10
323.039256
 20
1684.596189
 30
0.0
  0
SPLINE
  5
11b
100
AcDbEntity
  8
Layer_1
 62
7
100
AcDbSpline
 70
8
 71
3
 72
8
 73
4
 74
0
 40
0
 40
0
 40
0
 40
0
 40
1
 40
1
 40
1
 40
1
 10
269.399256
 20
2710.956189
 30
0.0
 10
269.399256
 20
2725.182401
 30
0.0
 10
275.050597
 20
2738.825945
 30
0.0
 10
285.110049
 20
2748.885397
 30
0.0
  0
SPLINE
  5
11c
100
AcDbEntity
  8
Layer_1
 62
7
100
AcDbSpline
 70
8
 71
3
 72
8
 73
4
 74
0
 40
0
 40
0
 40
0
 40
0
 40
1
 40
1
 40
1
 40
1
 10
285.110049
 20
2748.885397
 30
0.0
 10
295.169500
 20
2758.944848
 30
0.0
 10
308.813044
 20
2764.596189
 30
0.0
 10
323.039256
 20
2764.596189
 30
0.0
  0
LWPOLYLINE
  5
11d
100
AcDbEntity
  8
Layer_1
 62
7
100
AcDbPolyline
 90
2
 70
0
 10
269.399256
 20
1738.236189
 30
0.0
 10
269.399256
 20
2710.956189
 30
0.0
  0
LWPOLYLINE
  5
11e
100
AcDbEntity
  8
Layer_1
 62
7
100
AcDbPolyline
 90
1
 70
1
 10
323.039256
 20
2764.596189
 30
0.0
  0
SPLINE
  5
11f
100
AcDbEntity
  8
Layer_1
 62
7
100
AcDbSpline
 70
8
 71
3
 72
8
 73
4
 74
0
 40
0
 40
0
 40
0
 40
0
 40
1
 40
1
 40
1
 40
1
 10
1722.338918
 20
14739.490772
 30
0.0
 10
1736.565130
 20
14739.490772
 30
0.0
 10
1750.208674
 20
14733.839431
 30
0.0
 10
1760.268126
 20
14723.779979
 30
0.0
  0
SPLINE
  5
120
100
AcDbEntity
  8
Layer_1
 62
7
100
AcDbSpline
 70
8
 71
3
 72
8
 73
4
 74
0
 40
0
 40
0
 40
0
 40
0
 40
1
 40
1
 40
1
 40
1
 10
1760.268126
 20
14723.779979
 30
0.0
 10
1770.327577
 20
14713.720528
 30
0.0
 10
1775.978918
 20
14700.076984
 30
0.0
 10
1775.978918
 20
14685.850772
 30
0.0
  0
LWPOLYLINE
  5
121
100
AcDbEntity
  8
Layer_1
 62
7
100
AcDbPolyline
 90
2
 70
0
 10
101.618804
 20
14739.490772
 30
0.0
 10
1722.338918
 20
14739.490772
 30
0.0
  0
SPLINE
  5
122
100
AcDbEntity
  8
Layer_1
 62
7
100
AcDbSpline
 70
8
 71
3
 72
8
 73
4
 74
0
 40
0
 40
0
 40
0
 40
0
 40
1
 40
1
 40
1
 40
1
 10
1775.978918
 20
9609.130772
 30
0.0
 10
1775.978918
 20
9594.904559
 30
0.0
 10
1770.327577
 20
9581.261015
 30
0.0
 10
1760.268126
 20
9571.201564
 30
0.0
  0
SPLINE
  5
123
100
AcDbEntity
  8
Layer_1
 62
7
100
AcDbSpline
 70
8
 71
3
 72
8
 73
4
 74
0
 40
0
 40
0
 40
0
 40
0
 40
1
 40
1
 40
1
 40
1
 10
1760.268126
 20
9571.201564
 30
0.0
 10
1750.208674
 20
9561.142113
 30
0.0
 10
1736.565130
 20
9555.490772
 30
0.0
 10
1722.338918
 20
9555.490772
 30
0.0
  0
LWPOLYLINE
  5
124
100
AcDbEntity
  8
Layer_1
 62
7
100
AcDbPolyline
 90
2
 70
0
 10
1775.978918
 20
14685.850772
 30
0.0
 10
1775.978918
 20
9609.130772
 30
0.0
  0
SPLINE
  5
125
100
AcDbEntity
  8
Layer_1
 62
7
100
AcDbSpline
 70
8
 71
3
 72
8
 73
4
 74
0
 40
0
 40
0
 40
0
 40
0
 40
1
 40
1
 40
1
 40
1
 10
101.618804
 20
9555.490772
 30
0.0
 10
87.392592
 20
9555.490772
 30
0.0
 10
73.749048
 20
9561.142113
 30
0.0
 10
63.689597
 20
9571.201564
 30
0.0
  0
SPLINE
  5
126
100
AcDbEntity
  8
Layer_1
 62
7
100
AcDbSpline
 70
8
 71
3
 72
8
 73
4
 74
0
 40
0
 40
0
 40
0
 40
0
 40
1
 40
1
 40
1
 40
1
 10
63.689597
 20
9571.201564
 30
0.0
 10
53.630145
 20
9581.261015
 30
0.0
 10
47.978804
 20
9594.904559
 30
0.0
 10
47.978804
 20
9609.130772
 30
0.0
  0
LWPOLYLINE
  5
127
100
AcDbEntity
  8
Layer_1
 62
7
100
AcDbPolyline
 90
2
 70
0
 10
1722.338918
 20
9555.490772
 30
0.0
 10
101.618804
 20
9555.490772
 30
0.0
  0
SPLINE
  5
128
100
AcDbEntity
  8
Layer_1
 62
7
100
AcDbSpline
 70
8
 71
3
 72
8
 73
4
 74
0
 40
0
 40
0
 40
0
 40
0
 40
1
 40
1
 40
1
 40
1
 10
47.978804
 20
14685.850772
 30
0.0
 10
47.978804
 20
14700.076984
 30
0.0
 10
53.630145
 20
14713.720528
 30
0.0
 10
63.689597
 20
14723.779979
 30
0.0
  0
SPLINE
  5
129
100
AcDbEntity
  8
Layer_1
 62
7
100
AcDbSpline
 70
8
 71
3
 72
8
 73
4
 74
0
 40
0
 40
0
 40
0
 40
0
 40
1
 40
1
 40
1
 40
1
 10
63.689597
 20
14723.779979
 30
0.0
 10
73.749048
 20
14733.839431
 30
0.0
 10
87.392592
 20
14739.490772
 30
0.0
 10
101.618804
 20
14739.490772
 30
0.0
  0
LWPOLYLINE
  5
12a
100
AcDbEntity
  8
Layer_1
 62
7
100
AcDbPolyline
 90
2
 70
0
 10
47.978804
 20
9609.130772
 30
0.0
 10
47.978804
 20
14685.850772
 30
0.0
  0
LWPOLYLINE
  5
12b
100
AcDbEntity
  8
Layer_1
 62
7
100
AcDbPolyline
 90
1
 70
1
 10
101.618804
 20
14739.490772
 30
0.0
  0
SPLINE
  5
12c
100
AcDbEntity
  8
Layer_1
 62
7
100
AcDbSpline
 70
8
 71
3
 72
8
 73
4
 74
0
 40
0
 40
0
 40
0
 40
0
 40
1
 40
1
 40
1
 40
1
 10
4244.620394
 20
4131.868252
 30
0.0
 10
4258.846606
 20
4131.868252
 30
0.0
 10
4272.490150
 20
4126.216911
 30
0.0
 10
4282.549601
 20
4116.157460
 30
0.0
  0
SPLINE
  5
12d
100
AcDbEntity
  8
Layer_1
 62
7
100
AcDbSpline
 70
8
 71
3
 72
8
 73
4
 74
0
 40
0
 40
0
 40
0
 40
0
 40
1
 40
1
 40
1
 40
1
 10
4282.549601
 20
4116.157460
 30
0.0
 10
4292.609053
 20
4106.098008
 30
0.0
 10
4298.260394
 20
4092.454464
 30
0.0
 10
4298.260394
 20
4078.228252
 30
0.0
  0
LWPOLYLINE
  5
12e
100
AcDbEntity
  8
Layer_1
 62
7
100
AcDbPolyline
 90
2
 70
0
 10
2479.900337
 20
4131.868252
 30
0.0
 10
4244.620394
 20
4131.868252
 30
0.0
  0
SPLINE
  5
12f
100
AcDbEntity
  8
Layer_1
 62
7
100
AcDbSpline
 70
8
 71
3
 72
8
 73
4
 74
0
 40
0
 40
0
 40
0
 40
0
 40
1
 40
1
 40
1
 40
1
 10
4298.260394
 20
2313.508195
 30
0.0
 10
4298.260394
 20
2299.281983
 30
0.0
 10
4292.609053
 20
2285.638439
 30
0.0
 10
4282.549601
 20
2275.578988
 30
0.0
  0
SPLINE
  5
130
100
AcDbEntity
  8
Layer_1
 62
7
100
AcDbSpline
 70
8
 71
3
 72
8
 73
4
 74
0
 40
0
 40
0
 40
0
 40
0
 40
1
 40
1
 40
1
 40
1
 10
4282.549601
 20
2275.578988
 30
0.0
 10
4272.490150
 20
2265.519536
 30
0.0
 10
4258.846606
 20
2259.868195
 30
0.0
 10
4244.620394
 20
2259.868195
 30
0.0
  0
LWPOLYLINE
  5
131
100
AcDbEntity
  8
Layer_1
 62
7
100
AcDbPolyline
 90
2
 70
0
 10
4298.260394
 20
4078.228252
 30
0.0
 10
4298.260394
 20
2313.508195
 30
0.0
  0
SPLINE
  5
132
100
AcDbEntity
  8
Layer_1
 62
7
100
AcDbSpline
 70
8
 71
3
 72
8
 73
4
 74
0
 40
0
 40
0
 40
0
 40
0
 40
1
 40
1
 40
1
 40
1
 10
2479.900337
 20
2259.868195
 30
0.0
 10
2465.674124
 20
2259.868195
 30
0.0
 10
2452.030581
 20
2265.519536
 30
0.0
 10
2441.971129
 20
2275.578988
 30
0.0
  0
SPLINE
  5
133
100
AcDbEntity
  8
Layer_1
 62
7
100
AcDbSpline
 70
8
 71
3
 72
8
 73
4
 74
0
 40
0
 40
0
 40
0
 40
0
 40
1
 40
1
 40
1
 40
1
 10
2441.971129
 20
2275.578988
 30
0.0
 10
2431.911678
 20
2285.638439
 30
0.0
 10
2426.260337
 20
2299.281983
 30
0.0
 10
2426.260337
 20
2313.508195
 30
0.0
  0
LWPOLYLINE
  5
134
100
AcDbEntity
  8
Layer_1
 62
7
100
AcDbPolyline
 90
2
 70
0
 10
4244.620394
 20
2259.868195
 30
0.0
 10
2479.900337
 20
2259.868195
 30
0.0
  0
SPLINE
  5
135
100
AcDbEntity
  8
Layer_1
 62
7
100
AcDbSpline
 70
8
 71
3
 72
8
 73
4
 74
0
 40
0
 40
0
 40
0
 40
0
 40
1
 40
1
 40
1
 40
1
 10
2426.260337
 20
4078.228252
 30
0.0
 10
2426.260337
 20
4092.454464
 30
0.0
 10
2431.911678
 20
4106.098008
 30
0.0
 10
2441.971129
 20
4116.157460
 30
0.0
  0
SPLINE
  5
136
100
AcDbEntity
  8
Layer_1
 62
7
100
AcDbSpline
 70
8
 71
3
 72
8
 73
4
 74
0
 40
0
 40
0
 40
0
 40
0
 40
1
 40
1
 40
1
 40
1
 10
2441.971129
 20
4116.157460
 30
0.0
 10
2452.030581
 20
4126.216911
 30
0.0
 10
2465.674124
 20
4131.868252
 30
0.0
 10
2479.900337
 20
4131.868252
 30
0.0
  0
LWPOLYLINE
  5
137
100
AcDbEntity
  8
Layer_1
 62
7
100
AcDbPolyline
 90
2
 70
0
 10
2426.260337
 20
2313.508195
 30
0.0
 10
2426.260337
 20
4078.228252
 30
0.0
  0
LWPOLYLINE
  5
138
100
AcDbEntity
  8
Layer_1
 62
7
100
AcDbPolyline
 90
1
 70
1
 10
2479.900337
 20
4131.868252
 30
0.0
  0
SPLINE
  5
139
100
AcDbEntity
  8
Layer_1
 62
7
100
AcDbSpline
 70
8
 71
3
 72
8
 73
4
 74
0
 40
0
 40
0
 40
0
 40
0
 40
1
 40
1
 40
1
 40
1
 10
6445.117247
 20
14705.335843
 30
0.0
 10
6459.343460
 20
14705.335843
 30
0.0
 10
6472.987004
 20
14699.684502
 30
0.0
 10
6483.046455
 20
14689.625050
 30
0.0
  0
SPLINE
  5
13a
100
AcDbEntity
  8
Layer_1
 62
7
100
AcDbSpline
 70
8
 71
3
 72
8
 73
4
 74
0
 40
0
 40
0
 40
0
 40
0
 40
1
 40
1
 40
1
 40
1
 10
6483.046455
 20
14689.625050
 30
0.0
 10
6493.105906
 20
14679.565599
 30
0.0
 10
6498.757247
 20
14665.922055
 30
0.0
 10
6498.757247
 20
14651.695843
 30
0.0
  0
LWPOLYLINE
  5
13b
100
AcDbEntity
  8
Layer_1
 62
7
100
AcDbPolyline
 90
2
 70
0
 10
4824.397134
 20
14705.335843
 30
0.0
 10
6445.117247
 20
14705.335843
 30
0.0
  0
SPLINE
  5
13c
100
AcDbEntity
  8
Layer_1
 62
7
100
AcDbSpline
 70
8
 71
3
 72
8
 73
4
 74
0
 40
0
 40
0
 40
0
 40
0
 40
1
 40
1
 40
1
 40
1
 10
6498.757247
 20
9574.975843
 30
0.0
 10
6498.757247
 20
9560.749630
 30
0.0
 10
6493.105906
 20
9547.106086
 30
0.0
 10
6483.046455
 20
9537.046635
 30
0.0
  0
SPLINE
  5
13d
100
AcDbEntity
  8
Layer_1
 62
7
100
AcDbSpline
 70
8
 71
3
 72
8
 73
4
 74
0
 40
0
 40
0
 40
0
 40
0
 40
1
 40
1
 40
1
 40
1
 10
6483.046455
 20
9537.046635
 30
0.0
 10
6472.987004
 20
9526.987183
 30
0.0
 10
6459.343460
 20
9521.335843
 30
0.0
 10
6445.117247
 20
9521.335843
 30
0.0
  0
LWPOLYLINE
  5
13e
100
AcDbEntity
  8
Layer_1
 62
7
100
AcDbPolyline
 90
2
 70
0
 10
6498.757247
 20
14651.695843
 30
0.0
 10
6498.757247
 20
9574.975843
 30
0.0
  0
SPLINE
  5
13f
100
AcDbEntity
  8
Layer_1
 62
7
100
AcDbSpline
 70
8
 71
3
 72
8
 73
4
 74
0
 40
0
 40
0
 40
0
 40
0
 40
1
 40
1
 40
1
 40
1
 10
4824.397134
 20
9521.335843
 30
0.0
 10
4810.170921
 20
9521.335843
 30
0.0
 10
4796.527377
 20
9526.987183
 30
0.0
 10
4786.467926
 20
9537.046635
 30
0.0
  0
SPLINE
  5
140
100
AcDbEntity
  8
Layer_1
 62
7
100
AcDbSpline
 70
8
 71
3
 72
8
 73
4
 74
0
 40
0
 40
0
 40
0
 40
0
 40
1
 40
1
 40
1
 40
1
 10
4786.467926
 20
9537.046635
 30
0.0
 10
4776.408475
 20
9547.106086
 30
0.0
 10
4770.757134
 20
9560.749630
 30
0.0
 10
4770.757134
 20
9574.975843
 30
0.0
  0
LWPOLYLINE
  5
141
100
AcDbEntity
  8
Layer_1
 62
7
100
AcDbPolyline
 90
2
 70
0
 10
6445.117247
 20
9521.335843
 30
0.0
 10
4824.397134
 20
9521.335843
 30
0.0
  0
SPLINE
  5
142
100
AcDbEntity
  8
Layer_1
 62
7
100
AcDbSpline
 70
8
 71
3
 72
8
 73
4
 74
0
 40
0
 40
0
 40
0
 40
0
 40
1
 40
1
 40
1
 40
1
 10
4770.757134
 20
14651.695843
 30
0.0
 10
4770.757134
 20
14665.922055
 30
0.0
 10
4776.408475
 20
14679.565599
 30
0.0
 10
4786.467926
 20
14689.625050
 30
0.0
  0
SPLINE
  5
143
100
AcDbEntity
  8
Layer_1
 62
7
100
AcDbSpline
 70
8
 71
3
 72
8
 73
4
 74
0
 40
0
 40
0
 40
0
 40
0
 40
1
 40
1
 40
1
 40
1
 10
4786.467926
 20
14689.625050
 30
0.0
 10
4796.527377
 20
14699.684502
 30
0.0
 10
4810.170921
 20
14705.335843
 30
0.0
 10
4824.397134
 20
14705.335843
 30
0.0
  0
LWPOLYLINE
  5
144
100
AcDbEntity
  8
Layer_1
 62
7
100
AcDbPolyline
 90
2
 70
0
 10
4770.757134
 20
9574.975843
 30
0.0
 10
4770.757134
 20
14651.695843
 30
0.0
  0
LWPOLYLINE
  5
145
100
AcDbEntity
  8
Layer_1
 62
7
100
AcDbPolyline
 90
1
 70
1
 10
4824.397134
 20
14705.335843
 30
0.0
  0
SPLINE
  5
146
100
AcDbEntity
  8
Layer_1
 62
7
100
AcDbSpline
 70
8
 71
3
 72
8
 73
4
 74
0
 40
0
 40
0
 40
0
 40
0
 40
1
 40
1
 40
1
 40
1
 10
6246.616309
 20
8599.899118
 30
0.0
 10
6276.240863
 20
8599.899118
 30
0.0
 10
6300.256309
 20
8575.883672
 30
0.0
 10
6300.256309
 20
8546.259118
 30
0.0
  0
LWPOLYLINE
  5
147
100
AcDbEntity
  8
Layer_1
 62
7
100
AcDbPolyline
 90
2
 70
0
 10
4481.896252
 20
8599.899118
 30
0.0
 10
6246.616309
 20
8599.899118
 30
0.0
  0
SPLINE
  5
148
100
AcDbEntity
  8
Layer_1
 62
7
100
AcDbSpline
 70
8
 71
3
 72
8
 73
4
 74
0
 40
0
 40
0
 40
0
 40
0
 40
1
 40
1
 40
1
 40
1
 10
6300.256309
 20
5197.538835
 30
0.0
 10
6300.256309
 20
5167.914281
 30
0.0
 10
6276.240863
 20
5143.898835
 30
0.0
 10
6246.616309
 20
5143.898835
 30
0.0
  0
LWPOLYLINE
  5
149
100
AcDbEntity
  8
Layer_1
 62
7
100
AcDbPolyline
 90
2
 70
0
 10
6300.256309
 20
8546.259118
 30
0.0
 10
6300.256309
 20
5197.538835
 30
0.0
  0
SPLINE
  5
14a
100
AcDbEntity
  8
Layer_1
 62
7
100
AcDbSpline
 70
8
 71
3
 72
8
 73
4
 74
0
 40
0
 40
0
 40
0
 40
0
 40
1
 40
1
 40
1
 40
1
 10
4481.896252
 20
5143.898835
 30
0.0
 10
4467.670039
 20
5143.898835
 30
0.0
 10
4454.026496
 20
5149.550176
 30
0.0
 10
4443.967044
 20
5159.609627
 30
0.0
  0
SPLINE
  5
14b
100
AcDbEntity
  8
Layer_1
 62
7
100
AcDbSpline
 70
8
 71
3
 72
8
 73
4
 74
0
 40
0
 40
0
 40
0
 40
0
 40
1
 40
1
 40
1
 40
1
 10
4443.967044
 20
5159.609627
 30
0.0
 10
4433.907593
 20
5169.669078
 30
0.0
 10
4428.256252
 20
5183.312622
 30
0.0
 10
4428.256252
 20
5197.538835
 30
0.0
  0
LWPOLYLINE
  5
14c
100
AcDbEntity
  8
Layer_1
 62
7
100
AcDbPolyline
 90
2
 70
0
 10
6246.616309
 20
5143.898835
 30
0.0
 10
4481.896252
 20
5143.898835
 30
0.0
  0
SPLINE
  5
14d
100
AcDbEntity
  8
Layer_1
 62
7
100
AcDbSpline
 70
8
 71
3
 72
8
 73
4
 74
0
 40
0
 40
0
 40
0
 40
0
 40
1
 40
1
 40
1
 40
1
 10
4428.256252
 20
8546.259118
 30
0.0
 10
4428.256252
 20
8560.485331
 30
0.0
 10
4433.907593
 20
8574.128875
 30
0.0
 10
4443.967044
 20
8584.188326
 30
0.0
  0
SPLINE
  5
14e
100
AcDbEntity
  8
Layer_1
 62
7
100
AcDbSpline
 70
8
 71
3
 72
8
 73
4
 74
0
 40
0
 40
0
 40
0
 40
0
 40
1
 40
1
 40
1
 40
1
 10
4443.967044
 20
8584.188326
 30
0.0
 10
4454.026496
 20
8594.247777
 30
0.0
 10
4467.670039
 20
8599.899118
 30
0.0
 10
4481.896252
 20
8599.899118
 30
0.0
  0
LWPOLYLINE
  5
14f
100
AcDbEntity
  8
Layer_1
 62
7
100
AcDbPolyline
 90
2
 70
0
 10
4428.256252
 20
5197.538835
 30
0.0
 10
4428.256252
 20
8546.259118
 30
0.0
  0
LWPOLYLINE
  5
150
100
AcDbEntity
  8
Layer_1
 62
7
100
AcDbPolyline
 90
1
 70
1
 10
4481.896252
 20
8599.899118
 30
0.0
  0
SPLINE
  5
151
100
AcDbEntity
  8
Layer_1
 62
7
100
AcDbSpline
 70
8
 71
3
 72
8
 73
4
 74
0
 40
0
 40
0
 40
0
 40
0
 40
1
 40
1
 40
1
 40
1
 10
1911.971214
 20
9226.258016
 30
0.0
 10
1919.036747
 20
9226.258016
 30
0.0
 10
1925.812895
 20
9223.451244
 30
0.0
 10
1930.808981
 20
9218.455157
 30
0.0
  0
SPLINE
  5
152
100
AcDbEntity
  8
Layer_1
 62
7
100
AcDbSpline
 70
8
 71
3
 72
8
 73
4
 74
0
 40
0
 40
0
 40
0
 40
0
 40
1
 40
1
 40
1
 40
1
 10
1930.808981
 20
9218.455157
 30
0.0
 10
1935.805068
 20
9213.459070
 30
0.0
 10
1938.611840
 20
9206.682923
 30
0.0
 10
1938.611840
 20
9199.617389
 30
0.0
  0
LWPOLYLINE
  5
153
100
AcDbEntity
  8
Layer_1
 62
7
100
AcDbPolyline
 90
2
 70
0
 10
248.809289
 20
9226.258016
 30
0.0
 10
1911.971214
 20
9226.258016
 30
0.0
  0
SPLINE
  5
154
100
AcDbEntity
  8
Layer_1
 62
7
100
AcDbSpline
 70
8
 71
3
 72
8
 73
4
 74
0
 40
0
 40
0
 40
0
 40
0
 40
1
 40
1
 40
1
 40
1
 10
1938.611840
 20
6384.455493
 30
0.0
 10
1938.611840
 20
6377.389959
 30
0.0
 10
1935.805068
 20
6370.613812
 30
0.0
 10
1930.808981
 20
6365.617725
 30
0.0
  0
SPLINE
  5
155
100
AcDbEntity
  8
Layer_1
 62
7
100
AcDbSpline
 70
8
 71
3
 72
8
 73
4
 74
0
 40
0
 40
0
 40
0
 40
0
 40
1
 40
1
 40
1
 40
1
 10
1930.808981
 20
6365.617725
 30
0.0
 10
1925.812895
 20
6360.621638
 30
0.0
 10
1919.036747
 20
6357.814866
 30
0.0
 10
1911.971214
 20
6357.814866
 30
0.0
  0
LWPOLYLINE
  5
156
100
AcDbEntity
  8
Layer_1
 62
7
100
AcDbPolyline
 90
2
 70
0
 10
1938.611840
 20
9199.617389
 30
0.0
 10
1938.611840
 20
6384.455493
 30
0.0
  0
SPLINE
  5
157
100
AcDbEntity
  8
Layer_1
 62
7
100
AcDbSpline
 70
8
 71
3
 72
8
 73
4
 74
0
 40
0
 40
0
 40
0
 40
0
 40
1
 40
1
 40
1
 40
1
 10
248.809289
 20
6357.814866
 30
0.0
 10
234.096077
 20
6357.814866
 30
0.0
 10
222.168662
 20
6369.742281
 30
0.0
 10
222.168662
 20
6384.455493
 30
0.0
  0
LWPOLYLINE
  5
158
100
AcDbEntity
  8
Layer_1
 62
7
100
AcDbPolyline
 90
2
 70
0
 10
1911.971214
 20
6357.814866
 30
0.0
 10
248.809289
 20
6357.814866
 30
0.0
  0
SPLINE
  5
159
100
AcDbEntity
  8
Layer_1
 62
7
100
AcDbSpline
 70
8
 71
3
 72
8
 73
4
 74
0
 40
0
 40
0
 40
0
 40
0
 40
1
 40
1
 40
1
 40
1
 10
222.168662
 20
9199.617389
 30
0.0
 10
222.168662
 20
9214.330601
 30
0.0
 10
234.096077
 20
9226.258016
 30
0.0
 10
248.809289
 20
9226.258016
 30
0.0
  0
LWPOLYLINE
  5
15a
100
AcDbEntity
  8
Layer_1
 62
7
100
AcDbPolyline
 90
2
 70
0
 10
222.168662
 20
6384.455493
 30
0.0
 10
222.168662
 20
9199.617389
 30
0.0
  0
LWPOLYLINE
  5
15b
100
AcDbEntity
  8
Layer_1
 62
7
100
AcDbPolyline
 90
1
 70
1
 10
248.809289
 20
9226.258016
 30
0.0
  0
ENDSEC
  0
SECTION
  2
OBJECTS
  0
DICTIONARY
  5
C
330
0
100
AcDbDictionary
  3
ACAD_GROUP
350
D
  3
ACAD_MLINESTYLE
350
17
  0
DICTIONARY
  5
D
330
C
100
AcDbDictionary
  0
DICTIONARY
  5
1A
330
C
100
AcDbDictionary
  0
DICTIONARY
  5
17
330
C
100
AcDbDictionary
  3
STANDARD
350
18
  0
DICTIONARY
  5
19
330
C
100
AcDbDictionary
  0
ENDSEC
  0
EOF
